<svg xmlns="http://www.w3.org/2000/svg" version="1.1" id="svg1" width="1130" height="540" viewBox="170 690 1130 540">
  <defs id="defs1" />
  <g id="g1">
    <g id="g9" transform="translate(3.7713821,-7.542759)">
      <path style="fill:#fb5e3d" d="m 1109.579,1204.3462 c -19.0458,-3.8356 -29.5553,-23.4513 -21.759,-40.6127 6.9426,-15.2823 29.1961,-22.3538 45.2189,-14.3693 6.4693,3.2238 8.416,6.6178 5.1766,9.0253 -2.1282,1.5816 -3.2526,1.3956 -8.5319,-1.4114 -17.4942,-9.3018 -37.7335,4.2638 -34.2293,22.9425 1.9986,10.6539 14.7584,18.98 26.5996,17.357 9.979,-1.3678 11.4816,-2.7251 11.0157,-9.9502 l -0.4029,-6.2492 -7.9883,-0.6666 c -6.458,-0.539 -8.0795,-1.1469 -8.4645,-3.1736 -0.262,-1.3788 0.3328,-3.0196 1.3216,-3.6462 2.296,-1.4551 21.2405,-1.493 23.5196,-0.047 1.2472,0.7913 1.6147,4.369 1.3334,12.9796 l -0.3885,11.8873 -6,2.8842 c -7.0384,3.3835 -18.3071,4.6845 -26.421,3.0504 z m -588.69011,-2.1569 C 520.4,1201.7005 520,1189.1005 520,1174.1893 v -27.1111 h 15.80282 c 14.24289,0 16.25004,0.3005 20.33334,3.0435 2.89731,1.9463 5.22982,5.0507 6.47041,8.6116 1.74669,5.0135 1.71351,6.0428 -0.33316,10.3347 -1.25018,2.6216 -4.37313,6.0057 -6.9399,7.5201 -2.56676,1.5145 -4.66684,3.0398 -4.66684,3.3896 0,0.3498 3.0705,5.0338 6.82333,10.4088 6.91404,9.9027 7.37856,12.7082 2.09798,12.6713 -4.19685,-0.029 -5.04347,-0.8478 -12.73604,-12.3129 -6.7022,-9.989 -7.10955,-10.3333 -12.2259,-10.3333 h -5.29271 v 9.7333 c 0,5.7926 -0.64779,10.3811 -1.6,11.3333 -1.74324,1.7433 -5.42933,2.1263 -6.84444,0.7111 z m 26.73978,-31.1814 c 5.02157,-1.7505 7.10369,-5.9679 5.38806,-10.9135 -1.52559,-4.3979 -8.10658,-6.7639 -17.01673,-6.1179 l -6,0.4351 -0.40906,7.1744 c -0.22498,3.9459 -0.0938,7.9959 0.29149,9 0.85206,2.2204 11.83774,2.4816 17.74624,0.4219 z m 71.35576,30.5214 c -1.1983,-1.1983 -1.6511,-8.6953 -1.6511,-27.3375 0,-23.2409 0.22543,-25.8071 2.36777,-26.9536 1.50205,-0.8039 3.2083,-0.7968 4.66666,0.019 1.85293,1.037 2.29891,3.1984 2.29891,11.1416 0,5.4203 0.45,10.1239 1,10.4524 0.55,0.3285 6.4,-4.4257 13,-10.5649 9.89651,-9.2056 12.75959,-11.1662 16.33333,-11.1853 2.38333,-0.013 4.33333,0.5635 4.33333,1.2803 0,1.361 -18.85071,19.9059 -22.1218,21.7629 -1.03301,0.5864 -1.8782,1.7507 -1.8782,2.5874 0,0.8366 5.75363,7.3773 12.78583,14.5349 7.03221,7.1576 12.3968,13.6433 11.92131,14.4126 -0.47548,0.7694 -2.46837,1.3988 -4.42864,1.3988 -2.72582,0 -6.61438,-3.0388 -16.53266,-12.9198 -8.90095,-8.8676 -13.18673,-12.3177 -13.66422,-11 -0.38262,1.0559 -0.85752,6.7198 -1.05532,12.5865 -0.32128,9.5292 -0.64567,10.7077 -3.04187,11.0511 -1.47523,0.2114 -3.42523,-0.3586 -4.33333,-1.2667 z m 99.27283,0.6951 c -0.50816,-0.5082 -0.92393,-12.8028 -0.92393,-27.3215 0,-23.8799 0.22487,-26.5179 2.35773,-27.6593 3.0446,-1.6294 34.90005,-0.7743 36.65841,0.9841 0.73587,0.7359 0.97711,2.2783 0.53609,3.4276 -0.64978,1.6933 -3.19162,2.0896 -13.40133,2.0896 -6.9297,0 -13.54854,0.3642 -14.70851,0.8093 -1.56007,0.5987 -2.10905,2.6689 -2.10905,7.9534 v 7.144 l 13.66666,0.38 c 13.58757,0.3778 13.66667,0.3993 13.66667,3.7133 0,3.2889 -0.17778,3.3422 -13.33333,4 l -13.33334,0.6667 -0.3958,8.289 -0.39581,8.2891 15.06247,0.3776 15.06248,0.3776 v 3.3333 3.3334 l -18.74274,0.3683 c -10.30851,0.2026 -19.15851,-0.047 -19.66667,-0.5555 z m 112.02618,0.026 c -0.52256,-0.5226 -0.95011,-11.2859 -0.95011,-23.9186 0,-25.8872 0.572,-24.5871 -10.81756,-24.5871 -6.83382,0 -9.85246,-2.53 -6.73648,-5.646 1.89565,-1.8956 42.65466,-1.7867 44.56047,0.1191 3.08277,3.0828 -0.13221,5.5265 -7.29791,5.5473 -3.87302,0.011 -7.77715,0.4876 -8.67585,1.0585 -1.16361,0.7393 -1.73937,7.7384 -2,24.3129 l -0.366,23.2749 -3.38323,0.3945 c -1.86078,0.217 -3.81078,-0.033 -4.33333,-0.5555 z m 79.88689,-1.2093 c -0.46035,-1.1996 -0.837,-13.511 -0.837,-27.3585 0,-23.1901 0.19595,-25.2823 2.48248,-26.506 1.72893,-0.9253 3.15438,-0.8373 4.69596,0.29 1.95664,1.4307 2.1714,4.7123 1.85085,28.2816 L 918,1202.4116 l -3.49634,0.4054 c -2.27825,0.2642 -3.78794,-0.3544 -4.33333,-1.7757 z m 67.93545,-0.2965 c -0.93803,-2.9554 -0.85566,-31.2548 0.12807,-43.9999 l 0.74612,-9.6667 h 5.0375 c 4.93504,0 5.34546,0.4087 20.17673,20.0894 l 15.1391,20.0894 0.9232,-5.0894 c 0.5077,-2.7991 0.9577,-11.8394 1,-20.0894 l 0.077,-15 h 3.8574 c 2.2874,0 4.1867,0.8584 4.6666,2.1091 0.4452,1.16 0.8094,13.04 0.8094,26.4 0,26.1786 -0.3303,27.4909 -6.918,27.4909 -3.2435,0 -5.719,-2.6677 -19.4,-20.906 l -15.68203,-20.9059 -0.7835,7.2393 c -0.43093,3.9816 -0.50298,12.0831 -0.16012,18.0033 0.39471,6.8153 0.0535,11.8288 -0.93008,13.6667 -1.90032,3.5507 -7.6219,3.9257 -8.68719,0.5692 z m -676.14386,-0.6183 c -0.37927,-0.9884 -0.52585,-13.1138 -0.32575,-26.9454 0.39859,-27.5507 0.78021,-28.792 8.2734,-26.9114 3.11956,0.783 4.92111,3.5491 12.28519,18.863 4.74626,9.8701 9.21761,17.9455 9.93635,17.9455 0.71873,0 5.17094,-8.0556 9.8938,-17.9014 8.90969,-18.5742 10.54265,-20.3442 17.22216,-18.6677 l 3.47385,0.8718 -0.36046,26.8487 -0.36046,26.8486 -3.62016,0.4174 c -4.60301,0.5308 -4.96001,-0.9109 -5.38606,-21.7507 l -0.32711,-16 L 344,1180.8002 c -7.88826,15.5234 -8.96605,17.0203 -12,16.6666 -2.82366,-0.3291 -4.55655,-2.8811 -11.33333,-16.6902 -4.4,-8.9659 -8.43307,-16.3159 -8.96238,-16.3333 -0.5293,-0.017 -1.1293,8.2183 -1.33333,18.3016 L 310,1201.0782 l -3.67425,0.4227 c -2.18059,0.2508 -3.95457,-0.3079 -4.36383,-1.3744 z m 111.37141,-0.2403 c 0,-1.7663 6.8957,-17.8181 17.91266,-41.6973 5.22795,-11.3315 8.57846,-14.0704 13.78137,-11.2653 2.6655,1.437 24.79167,51.6234 23.60573,53.5423 -0.43476,0.7035 -2.44042,1.279 -4.45702,1.279 -3.12096,0 -4.15088,-1.0416 -6.92131,-7 l -3.25476,-7 -10.66219,-0.3953 c -14.65633,-0.5435 -15.63059,-0.1483 -18.9391,7.6828 -2.53426,5.9984 -3.27371,6.7125 -6.95067,6.7125 -2.62961,0 -4.11471,-0.6708 -4.11471,-1.8587 z m 34.91232,-20.5683 c 2.02107,-0.8157 1.84157,-1.873 -1.79494,-10.573 -2.22231,-5.3167 -4.49403,-9.6667 -5.04826,-9.6667 -1.5938,0 -9.68335,18.4668 -8.75064,19.976 0.92817,1.5018 12.05952,1.69 15.59384,0.2637 z m 294.42102,-60.0788 c -19.87876,-4.3342 -28.60074,-24.3951 -17.35559,-39.9186 4.60182,-6.3526 10.91603,-8.816 20.28896,-7.9153 7.55769,0.7262 10.39831,2.9937 15.59865,12.4519 1.90739,3.4691 4.75237,6.7694 6.32218,7.334 4.36911,1.5716 11.24285,-2.5939 15.98203,-9.685 4.61317,-6.9026 11.54277,-22.7557 13.93065,-31.8697 l 1.54359,-5.8915 -16.68503,-37.3333 c -9.17677,-20.53337 -21.29009,-47.53337 -26.91847,-60.00004 -5.62839,-12.46667 -14.14697,-31.50455 -18.93017,-42.3064 -9.18757,-20.74819 -13.62119,-26.569 -21.56638,-28.31405 -2.19321,-0.48171 -4.28226,-1.64359 -4.64234,-2.58194 -1.76236,-4.59263 0.63682,-4.8417 43.18922,-4.48362 40.0778,0.33726 41.90936,0.46276 41.90936,2.87179 0,1.90554 -1.6103,2.92799 -6.6113,4.19779 -11.99156,3.04478 -14.37191,10.94322 -7.61955,25.28309 2.07187,4.4 11.76318,25.88679 21.53624,47.74842 14.23211,31.8362 18.09355,39.40039 19.3986,38 2.86024,-3.06918 34.33672,-83.53868 36.57675,-93.50833 2.2134,-9.85112 -4.67879,-18.24009 -14.98565,-18.24009 -1.81604,0 -3.98277,-0.82039 -4.81493,-1.82309 -3.45074,-4.15788 1.41565,-4.91019 29.35702,-4.53837 25.75455,0.34272 27.16282,0.49396 27.16282,2.91702 0,1.8046 -1.59837,3.08834 -5.43937,4.36868 -9.28854,3.09618 -12.89692,8.34271 -23.20685,33.74243 -11.46876,28.25466 -21.41953,53.56014 -36.70106,93.33331 -32.29027,84.0418 -36.49918,93.156 -48.14859,104.2637 -9.9311,9.4692 -26.80314,14.5937 -39.17079,11.8972 z m -105.13225,-68.2867 c -16.37467,-2.5019 -34.24666,-12.0725 -44.22182,-23.6814 -7.69366,-8.9536 -15.25485,-24.4071 -18.66221,-38.14161 -2.594,-10.45597 -2.88283,-14.37071 -2.3118,-31.33334 0.50842,-15.10248 1.31344,-21.44622 3.64432,-28.71783 12.97838,-40.48848 43.63944,-64.5773 82.2848,-64.64696 27.12153,-0.0489 47.63185,10.58921 56.11748,29.10645 4.44683,9.70384 4.52754,17.70062 0.25534,25.30196 -4.37751,7.78874 -10.39531,11.28617 -19.41935,11.28617 -9.77012,0 -16.71417,-4.55189 -19.97681,-13.095 -2.20075,-5.76258 -2.22013,-6.79659 -0.27939,-14.90781 2.43569,-10.17984 1.53265,-14.98778 -3.87521,-20.63237 -6.98452,-7.29027 -18.48002,-7.94344 -29.29622,-1.66461 -16.40822,9.52503 -28.87772,45.69175 -26.61591,77.19721 3.44977,48.05294 29.40957,76.54884 62.1053,68.17254 16.2203,-4.1554 29.08823,-13.694 35.47399,-26.29569 3.68444,-7.27091 4.93388,-8.31131 8.58834,-7.15143 6.82777,2.16705 -1.11723,22.36702 -14.3478,36.47892 -17.23384,18.3818 -42.91005,26.7818 -69.46305,22.7248 z m 490.37138,-0.364 c -13.1432,-3.5438 -24.2112,-12.7587 -29.7582,-24.7758 -2.1862,-4.7362 -2.8023,-8.7009 -2.8075,-18.0677 -0.01,-15.9396 4.1002,-25.34284 15.8973,-36.3784 11.2403,-10.51477 22.2906,-15.91967 53.7058,-26.26846 14.8187,-4.88159 28.9187,-10.20991 31.3333,-11.84071 l 4.3902,-2.96509 v -16.60701 c 0,-19.45456 -1.8684,-24.65834 -11.2265,-31.26868 -4.8798,-3.44691 -7.0586,-4.05506 -15.8813,-4.43273 -8.7162,-0.37312 -11.0959,0.0276 -16.1223,2.71456 -3.7751,2.01814 -6.8336,4.95754 -8.5006,8.1698 -2.3669,4.56101 -2.4511,5.73721 -0.9251,12.92796 3.13,14.74952 -0.3837,23.97619 -11.1078,29.16765 -7.403,3.5837 -13.5403,3.51958 -20.9539,-0.2189 -16.0787,-8.10801 -15.5058,-31.75424 1.1249,-46.42563 14.0946,-12.43416 33.59,-18.84822 57.5926,-18.94815 24.5976,-0.1024 41.6107,5.09613 53.9743,16.49243 15.5339,14.3187 16.6395,20.17222 16.6692,88.25751 0.025,57.80605 0.427,61.33715 7.1724,63.03015 4.818,1.2092 8.4875,-0.3499 15.0411,-6.3908 4.8261,-4.4485 6.1392,-5.0685 7.8059,-3.6853 3.526,2.9264 2.2229,7.4709 -4.1861,14.5993 -8.5313,9.4888 -17.1963,13.6849 -29.8102,14.4356 -12.7272,0.7574 -20.1043,-1.2618 -26.8388,-7.3459 C 1209.12,1039.9085 1204,1031.6313 1204,1027.798 c 0,-3.2164 -1.093,-2.5836 -10.1144,5.8554 -9.1696,8.5777 -21.0609,14.9442 -32.2846,17.2847 -9.1638,1.911 -25.9571,1.7367 -33.6952,-0.3497 z m 47.7934,-21.5444 c 9.4862,-2.8171 17.4676,-9.3045 21.9105,-17.8091 l 3.7236,-7.1279 v -29.18103 c 0,-16.29431 -0.5272,-29.18108 -1.1939,-29.18108 -2.2414,0 -34.1249,14.20054 -39.4727,17.58067 -14.7898,9.34801 -22.5222,22.48658 -22.611,38.41934 -0.048,8.6 0.4649,10.8856 3.6628,16.3259 6.6317,11.2817 19.2359,15.352 33.9807,10.9732 z m -245.03253,20.7008 c -3.3,-0.5609 -10.8,-2.8875 -16.66667,-5.1704 -13.16513,-5.1228 -17.8134,-5.2859 -22.05209,-0.7741 -1.8326,1.9508 -4.33595,3.2238 -5.89909,3 -2.64178,-0.3782 -2.71549,-1.2211 -2.71549,-31.0554 v -30.66667 h 3.32963 c 2.93021,0 3.67031,1.06036 6.16953,8.83936 6.6326,20.64441 18.17672,35.61541 32.79595,42.53141 23.52887,11.1311 48.38029,-1.5085 48.36684,-24.5995 -0.01,-16.59099 -7.74411,-24.99544 -37.72852,-40.99682 -11.44798,-6.10928 -23.65561,-13.23043 -27.12808,-15.82476 -28.31325,-21.1533 -29.80641,-58.70456 -3.13868,-78.93396 15.14351,-11.48746 41.15743,-15.05725 60,-8.23358 19.47532,7.05282 18.73127,6.99116 23.90087,1.98059 8.31409,-8.05833 8.7658,-6.73404 8.7658,25.69881 0,23.74696 -0.33619,28.82427 -2,30.20511 -3.05138,2.53242 -5.32074,-0.19423 -7.21812,-8.67261 -6.8678,-30.68858 -33.07291,-49.5138 -54.4912,-39.14538 -9.67178,4.68203 -15.00103,16.38552 -12.21171,26.81799 2.11009,7.89207 9.83225,14.81526 26.61802,23.86399 31.02502,16.72471 35.08673,19.23544 43.31439,26.7746 23.87925,21.88103 25.17265,54.75902 3.0224,76.83162 -14.98282,14.9303 -40.25228,21.7416 -65.03378,17.5297 z m 79.55553,-2.2221 c -0.4889,-0.4889 -0.8889,-1.9617 -0.8889,-3.2729 0,-1.7051 1.4241,-2.6419 5,-3.2894 2.75,-0.4979 6.5655,-1.6967 8.4789,-2.6642 7.057,-3.568 7.1878,-4.9728 7.1878,-77.21797 0,-36.66667 -0.4571,-68.29936 -1.0157,-70.29485 -1.2233,-4.36934 -4.5899,-6.34575 -12.8132,-7.52204 -4.9733,-0.7114 -6.1711,-1.39711 -6.1711,-3.53293 0,-3.08564 1.2297,-3.42022 37.0913,-10.09201 20.3638,-3.78853 23.9326,-4.14414 24.9796,-2.48909 0.7048,1.11399 1.2302,36.2566 1.242,83.06425 l 0.02,81.13334 4.3334,4.3324 c 3.137,3.1364 6.0731,4.5932 10.6356,5.2771 6.9742,1.0453 8.7435,2.5904 6.3159,5.5156 -1.3468,1.6227 -8.3352,1.9416 -42.5592,1.9416 -22.5214,0 -41.3479,-0.4 -41.8368,-0.8889 z m -553.79167,-2.579 c -0.87892,-2.2905 1.56394,-4.4785 5.03717,-4.5117 1.17391,-0.011 4.04214,-0.6855 6.37385,-1.4983 8.25264,-2.8769 8.15845,-1.972 8.15845,-78.38158 v -69.32519 l -3.04399,-3.53886 c -2.21901,-2.57975 -4.72699,-3.72855 -9.25379,-4.23879 -6.52624,-0.7356 -9.21509,-3.5631 -6.08455,-6.3983 1.44982,-1.31304 49.62509,-10.07749 57.71566,-10.50012 2.45143,-0.12806 2.72048,0.91095 3.33334,12.87249 0.36666,7.15648 1.08544,13.15649 1.59729,13.33333 0.51184,0.17685 2.79858,-2.49856 5.08163,-5.94535 8.66559,-13.08265 20.20665,-20.24625 32.76841,-20.33953 6.72232,-0.0499 9.014,0.56345 13.3613,3.57614 6.48906,4.49692 9.62832,9.64884 10.71635,17.58684 2.97356,21.69448 -22.46627,35.0754 -35.40725,18.6236 -1.53142,-1.94688 -2.7844,-4.54419 -2.7844,-5.7718 0,-1.2276 -0.85758,-3.39669 -1.90574,-4.82018 -1.84729,-2.5088 -2.04152,-2.51533 -6.33333,-0.21295 -5.43159,2.91383 -9.40737,8.83487 -13.34552,19.87517 -2.86162,8.0223 -3.02456,10.66196 -3.4808,56.38991 -0.26326,26.38551 -0.0799,50.63307 0.40757,53.88347 1.21916,8.1299 6.24709,12.9613 14.77439,14.1969 7.45371,1.08 10.0485,2.6311 8.99486,5.3768 -0.61123,1.5928 -7.65895,1.9025 -43.29593,1.9025 -37.79896,0 -42.65759,-0.239 -43.38497,-2.1345 z m -265.25865,-5.3674 c -1.51956,-6.0544 0.72815,-37.9279 3.48967,-49.48519 7.19735,-30.12177 29.4046,-58.04157 56.87162,-71.50117 21.64897,-10.6086 35.49474,-13.36996 62.84273,-12.53317 17.9292,0.5486 20.97591,1.02169 35.27576,5.47762 8.60841,2.68244 15.95841,4.87717 16.33333,4.87717 1.25571,0 0.63353,-32.59272 -0.73555,-38.53175 -8.17193,-35.44954 -41.19184,-56.34258 -75.0367,-47.47877 -21.47458,5.62409 -33.60385,20.47481 -35.34283,43.27274 L 254,885.07822 h -24 -24 l 0.41799,-5.21598 c 1.06112,-13.2415 14.86136,-34.79437 31.17253,-48.68449 46.22587,-39.36459 109.08345,-37.47494 151.10084,4.54245 14.72165,14.72165 25.83602,33.99512 31.53868,54.69136 2.81463,10.21494 2.96084,13.54013 3.45241,78.51926 0.28232,37.31888 0.15783,69.26888 -0.27664,70.99998 l -0.78995,3.1474 h -28.45714 -28.45713 l -0.89176,-8.704 c -0.49047,-4.7873 -0.50958,-11.5851 -0.0425,-15.1063 1.8782,-14.1586 -5.65133,-34.27999 -17.11897,-45.74764 -4.45143,-4.45142 -10.35728,-8.48317 -16.75937,-11.44112 -9.52796,-4.40219 -10.37438,-4.55107 -23.38738,-4.11378 -15.22767,0.51171 -24.0238,3.6586 -34.71579,12.41989 -13.90778,11.39637 -18.26529,22.96936 -19.33818,51.35965 l -0.781,20.6667 -30.30167,0.3582 -30.30167,0.3583 z M 950.66667,823.84452 c 0,-1.0452 6.15,-5.9186 13.66666,-10.82977 39.86857,-26.04899 58.07387,-40.11888 126.24117,-97.56506 15.4768,-13.04262 17.7312,-12.83601 14.1126,1.29337 -2.9176,11.39188 -13.6336,33.26407 -21.1688,43.20694 -22.2483,29.35716 -63.2398,52.46068 -111.04276,62.58561 -17.57328,3.72211 -21.80887,3.97632 -21.80887,1.30891 z" id="path11" />
      <path style="fill:#5f5f5e" d="m 1109.579,1204.3462 c -19.0458,-3.8356 -29.5553,-23.4513 -21.759,-40.6127 6.9426,-15.2823 29.1961,-22.3538 45.2189,-14.3693 6.4693,3.2238 8.416,6.6178 5.1766,9.0253 -2.1282,1.5816 -3.2526,1.3956 -8.5319,-1.4114 -17.4942,-9.3018 -37.7335,4.2638 -34.2293,22.9425 1.9986,10.6539 14.7584,18.98 26.5996,17.357 9.979,-1.3678 11.4816,-2.7251 11.0157,-9.9502 l -0.4029,-6.2492 -7.9883,-0.6666 c -6.458,-0.539 -8.0795,-1.1469 -8.4645,-3.1736 -0.262,-1.3788 0.3328,-3.0196 1.3216,-3.6462 2.296,-1.4551 21.2405,-1.493 23.5196,-0.047 1.2472,0.7913 1.6147,4.369 1.3334,12.9796 l -0.3885,11.8873 -6,2.8842 c -7.0384,3.3835 -18.3071,4.6845 -26.421,3.0504 z m -588.69011,-2.1569 C 520.4,1201.7005 520,1189.1005 520,1174.1893 v -27.1111 h 15.80282 c 14.24289,0 16.25004,0.3005 20.33334,3.0435 2.89731,1.9463 5.22982,5.0507 6.47041,8.6116 1.74669,5.0135 1.71351,6.0428 -0.33316,10.3347 -1.25018,2.6216 -4.37313,6.0057 -6.9399,7.5201 -2.56676,1.5145 -4.66684,3.0398 -4.66684,3.3896 0,0.3498 3.0705,5.0338 6.82333,10.4088 6.91404,9.9027 7.37856,12.7082 2.09798,12.6713 -4.19685,-0.029 -5.04347,-0.8478 -12.73604,-12.3129 -6.7022,-9.989 -7.10955,-10.3333 -12.2259,-10.3333 h -5.29271 v 9.7333 c 0,5.7926 -0.64779,10.3811 -1.6,11.3333 -1.74324,1.7433 -5.42933,2.1263 -6.84444,0.7111 z m 26.73978,-31.1814 c 5.02157,-1.7505 7.10369,-5.9679 5.38806,-10.9135 -1.52559,-4.3979 -8.10658,-6.7639 -17.01673,-6.1179 l -6,0.4351 -0.40906,7.1744 c -0.22498,3.9459 -0.0938,7.9959 0.29149,9 0.85206,2.2204 11.83774,2.4816 17.74624,0.4219 z m 71.35576,30.5214 c -1.1983,-1.1983 -1.6511,-8.6953 -1.6511,-27.3375 0,-23.2409 0.22543,-25.8071 2.36777,-26.9536 1.50205,-0.8039 3.2083,-0.7968 4.66666,0.019 1.85293,1.037 2.29891,3.1984 2.29891,11.1416 0,5.4203 0.45,10.1239 1,10.4524 0.55,0.3285 6.4,-4.4257 13,-10.5649 9.89651,-9.2056 12.75959,-11.1662 16.33333,-11.1853 2.38333,-0.013 4.33333,0.5635 4.33333,1.2803 0,1.361 -18.85071,19.9059 -22.1218,21.7629 -1.03301,0.5864 -1.8782,1.7507 -1.8782,2.5874 0,0.8366 5.75363,7.3773 12.78583,14.5349 7.03221,7.1576 12.3968,13.6433 11.92131,14.4126 -0.47548,0.7694 -2.46837,1.3988 -4.42864,1.3988 -2.72582,0 -6.61438,-3.0388 -16.53266,-12.9198 -8.90095,-8.8676 -13.18673,-12.3177 -13.66422,-11 -0.38262,1.0559 -0.85752,6.7198 -1.05532,12.5865 -0.32128,9.5292 -0.64567,10.7077 -3.04187,11.0511 -1.47523,0.2114 -3.42523,-0.3586 -4.33333,-1.2667 z m 99.27283,0.6951 c -0.50816,-0.5082 -0.92393,-12.8028 -0.92393,-27.3215 0,-23.8799 0.22487,-26.5179 2.35773,-27.6593 3.0446,-1.6294 34.90005,-0.7743 36.65841,0.9841 0.73587,0.7359 0.97711,2.2783 0.53609,3.4276 -0.64978,1.6933 -3.19162,2.0896 -13.40133,2.0896 -6.9297,0 -13.54854,0.3642 -14.70851,0.8093 -1.56007,0.5987 -2.10905,2.6689 -2.10905,7.9534 v 7.144 l 13.66666,0.38 c 13.58757,0.3778 13.66667,0.3993 13.66667,3.7133 0,3.2889 -0.17778,3.3422 -13.33333,4 l -13.33334,0.6667 -0.3958,8.289 -0.39581,8.2891 15.06247,0.3776 15.06248,0.3776 v 3.3333 3.3334 l -18.74274,0.3683 c -10.30851,0.2026 -19.15851,-0.047 -19.66667,-0.5555 z m 112.02618,0.026 c -0.52256,-0.5226 -0.95011,-11.2859 -0.95011,-23.9186 0,-25.8872 0.572,-24.5871 -10.81756,-24.5871 -6.83382,0 -9.85246,-2.53 -6.73648,-5.646 1.89565,-1.8956 42.65466,-1.7867 44.56047,0.1191 3.08277,3.0828 -0.13221,5.5265 -7.29791,5.5473 -3.87302,0.011 -7.77715,0.4876 -8.67585,1.0585 -1.16361,0.7393 -1.73937,7.7384 -2,24.3129 l -0.366,23.2749 -3.38323,0.3945 c -1.86078,0.217 -3.81078,-0.033 -4.33333,-0.5555 z m 79.88689,-1.2093 c -0.46035,-1.1996 -0.837,-13.511 -0.837,-27.3585 0,-23.1901 0.19595,-25.2823 2.48248,-26.506 1.72893,-0.9253 3.15438,-0.8373 4.69596,0.29 1.95664,1.4307 2.1714,4.7123 1.85085,28.2816 L 918,1202.4116 l -3.49634,0.4054 c -2.27825,0.2642 -3.78794,-0.3544 -4.33333,-1.7757 z m 67.93545,-0.2965 c -0.93803,-2.9554 -0.85566,-31.2548 0.12807,-43.9999 l 0.74612,-9.6667 h 5.0375 c 4.93504,0 5.34546,0.4087 20.17673,20.0894 l 15.1391,20.0894 0.9232,-5.0894 c 0.5077,-2.7991 0.9577,-11.8394 1,-20.0894 l 0.077,-15 h 3.8574 c 2.2874,0 4.1867,0.8584 4.6666,2.1091 0.4452,1.16 0.8094,13.04 0.8094,26.4 0,26.1786 -0.3303,27.4909 -6.918,27.4909 -3.2435,0 -5.719,-2.6677 -19.4,-20.906 l -15.68203,-20.9059 -0.7835,7.2393 c -0.43093,3.9816 -0.50298,12.0831 -0.16012,18.0033 0.39471,6.8153 0.0535,11.8288 -0.93008,13.6667 -1.90032,3.5507 -7.6219,3.9257 -8.68719,0.5692 z m -676.14386,-0.6183 c -0.37927,-0.9884 -0.52585,-13.1138 -0.32575,-26.9454 0.39859,-27.5507 0.78021,-28.792 8.2734,-26.9114 3.11956,0.783 4.92111,3.5491 12.28519,18.863 4.74626,9.8701 9.21761,17.9455 9.93635,17.9455 0.71873,0 5.17094,-8.0556 9.8938,-17.9014 8.90969,-18.5742 10.54265,-20.3442 17.22216,-18.6677 l 3.47385,0.8718 -0.36046,26.8487 -0.36046,26.8486 -3.62016,0.4174 c -4.60301,0.5308 -4.96001,-0.9109 -5.38606,-21.7507 l -0.32711,-16 L 344,1180.8002 c -7.88826,15.5234 -8.96605,17.0203 -12,16.6666 -2.82366,-0.3291 -4.55655,-2.8811 -11.33333,-16.6902 -4.4,-8.9659 -8.43307,-16.3159 -8.96238,-16.3333 -0.5293,-0.017 -1.1293,8.2183 -1.33333,18.3016 L 310,1201.0782 l -3.67425,0.4227 c -2.18059,0.2508 -3.95457,-0.3079 -4.36383,-1.3744 z m 111.37141,-0.2403 c 0,-1.7663 6.8957,-17.8181 17.91266,-41.6973 5.22795,-11.3315 8.57846,-14.0704 13.78137,-11.2653 2.6655,1.437 24.79167,51.6234 23.60573,53.5423 -0.43476,0.7035 -2.44042,1.279 -4.45702,1.279 -3.12096,0 -4.15088,-1.0416 -6.92131,-7 l -3.25476,-7 -10.66219,-0.3953 c -14.65633,-0.5435 -15.63059,-0.1483 -18.9391,7.6828 -2.53426,5.9984 -3.27371,6.7125 -6.95067,6.7125 -2.62961,0 -4.11471,-0.6708 -4.11471,-1.8587 z m 34.91232,-20.5683 c 2.02107,-0.8157 1.84157,-1.873 -1.79494,-10.573 -2.22231,-5.3167 -4.49403,-9.6667 -5.04826,-9.6667 -1.5938,0 -9.68335,18.4668 -8.75064,19.976 0.92817,1.5018 12.05952,1.69 15.59384,0.2637 z m 294.42102,-60.0788 c -19.87876,-4.3342 -28.60074,-24.3951 -17.35559,-39.9186 4.60182,-6.3526 10.91603,-8.816 20.28896,-7.9153 7.55769,0.7262 10.39831,2.9937 15.59865,12.4519 1.90739,3.4691 4.75237,6.7694 6.32218,7.334 4.36911,1.5716 11.24285,-2.5939 15.98203,-9.685 4.61317,-6.9026 11.54277,-22.7557 13.93065,-31.8697 l 1.54359,-5.8915 -16.68503,-37.3333 c -9.17677,-20.53337 -21.29009,-47.53337 -26.91847,-60.00004 -5.62839,-12.46667 -14.14697,-31.50455 -18.93017,-42.3064 -9.18757,-20.74819 -13.62119,-26.569 -21.56638,-28.31405 -2.19321,-0.48171 -4.28226,-1.64359 -4.64234,-2.58194 -1.76236,-4.59263 0.63682,-4.8417 43.18922,-4.48362 40.0778,0.33726 41.90936,0.46276 41.90936,2.87179 0,1.90554 -1.6103,2.92799 -6.6113,4.19779 -11.99156,3.04478 -14.37191,10.94322 -7.61955,25.28309 2.07187,4.4 11.76318,25.88679 21.53624,47.74842 14.23211,31.8362 18.09355,39.40039 19.3986,38 2.86024,-3.06918 34.33672,-83.53868 36.57675,-93.50833 2.2134,-9.85112 -4.67879,-18.24009 -14.98565,-18.24009 -1.81604,0 -3.98277,-0.82039 -4.81493,-1.82309 -3.45074,-4.15788 1.41565,-4.91019 29.35702,-4.53837 25.75455,0.34272 27.16282,0.49396 27.16282,2.91702 0,1.8046 -1.59837,3.08834 -5.43937,4.36868 -9.28854,3.09618 -12.89692,8.34271 -23.20685,33.74243 -11.46876,28.25466 -21.41953,53.56014 -36.70106,93.33331 -32.29027,84.0418 -36.49918,93.156 -48.14859,104.2637 -9.9311,9.4692 -26.80314,14.5937 -39.17079,11.8972 z m -105.13225,-68.2867 c -16.37467,-2.5019 -34.24666,-12.0725 -44.22182,-23.6814 -7.69366,-8.9536 -15.25485,-24.4071 -18.66221,-38.14161 -2.594,-10.45597 -2.88283,-14.37071 -2.3118,-31.33334 0.50842,-15.10248 1.31344,-21.44622 3.64432,-28.71783 12.97838,-40.48848 43.63944,-64.5773 82.2848,-64.64696 27.12153,-0.0489 47.63185,10.58921 56.11748,29.10645 4.44683,9.70384 4.52754,17.70062 0.25534,25.30196 -4.37751,7.78874 -10.39531,11.28617 -19.41935,11.28617 -9.77012,0 -16.71417,-4.55189 -19.97681,-13.095 -2.20075,-5.76258 -2.22013,-6.79659 -0.27939,-14.90781 2.43569,-10.17984 1.53265,-14.98778 -3.87521,-20.63237 -6.98452,-7.29027 -18.48002,-7.94344 -29.29622,-1.66461 -16.40822,9.52503 -28.87772,45.69175 -26.61591,77.19721 3.44977,48.05294 29.40957,76.54884 62.1053,68.17254 16.2203,-4.1554 29.08823,-13.694 35.47399,-26.29569 3.68444,-7.27091 4.93388,-8.31131 8.58834,-7.15143 6.82777,2.16705 -1.11723,22.36702 -14.3478,36.47892 -17.23384,18.3818 -42.91005,26.7818 -69.46305,22.7248 z m 490.37138,-0.364 c -13.1432,-3.5438 -24.2112,-12.7587 -29.7582,-24.7758 -2.1862,-4.7362 -2.8023,-8.7009 -2.8075,-18.0677 -0.01,-15.9396 4.1002,-25.34284 15.8973,-36.3784 11.2403,-10.51477 22.2906,-15.91967 53.7058,-26.26846 14.8187,-4.88159 28.9187,-10.20991 31.3333,-11.84071 l 4.3902,-2.96509 v -16.60701 c 0,-19.45456 -1.8684,-24.65834 -11.2265,-31.26868 -4.8798,-3.44691 -7.0586,-4.05506 -15.8813,-4.43273 -8.7162,-0.37312 -11.0959,0.0276 -16.1223,2.71456 -3.7751,2.01814 -6.8336,4.95754 -8.5006,8.1698 -2.3669,4.56101 -2.4511,5.73721 -0.9251,12.92796 3.13,14.74952 -0.3837,23.97619 -11.1078,29.16765 -7.403,3.5837 -13.5403,3.51958 -20.9539,-0.2189 -16.0787,-8.10801 -15.5058,-31.75424 1.1249,-46.42563 14.0946,-12.43416 33.59,-18.84822 57.5926,-18.94815 24.5976,-0.1024 41.6107,5.09613 53.9743,16.49243 15.5339,14.3187 16.6395,20.17222 16.6692,88.25751 0.025,57.80605 0.427,61.33715 7.1724,63.03015 4.818,1.2092 8.4875,-0.3499 15.0411,-6.3908 4.8261,-4.4485 6.1392,-5.0685 7.8059,-3.6853 3.526,2.9264 2.2229,7.4709 -4.1861,14.5993 -8.5313,9.4888 -17.1963,13.6849 -29.8102,14.4356 -12.7272,0.7574 -20.1043,-1.2618 -26.8388,-7.3459 C 1209.12,1039.9085 1204,1031.6313 1204,1027.798 c 0,-3.2164 -1.093,-2.5836 -10.1144,5.8554 -9.1696,8.5777 -21.0609,14.9442 -32.2846,17.2847 -9.1638,1.911 -25.9571,1.7367 -33.6952,-0.3497 z m 47.7934,-21.5444 c 9.4862,-2.8171 17.4676,-9.3045 21.9105,-17.8091 l 3.7236,-7.1279 v -29.18103 c 0,-16.29431 -0.5272,-29.18108 -1.1939,-29.18108 -2.2414,0 -34.1249,14.20054 -39.4727,17.58067 -14.7898,9.34801 -22.5222,22.48658 -22.611,38.41934 -0.048,8.6 0.4649,10.8856 3.6628,16.3259 6.6317,11.2817 19.2359,15.352 33.9807,10.9732 z m -245.03253,20.7008 c -3.3,-0.5609 -10.8,-2.8875 -16.66667,-5.1704 -13.16513,-5.1228 -17.8134,-5.2859 -22.05209,-0.7741 -1.8326,1.9508 -4.33595,3.2238 -5.89909,3 -2.64178,-0.3782 -2.71549,-1.2211 -2.71549,-31.0554 v -30.66667 h 3.32963 c 2.93021,0 3.67031,1.06036 6.16953,8.83936 6.6326,20.64441 18.17672,35.61541 32.79595,42.53141 23.52887,11.1311 48.38029,-1.5085 48.36684,-24.5995 -0.01,-16.59099 -7.74411,-24.99544 -37.72852,-40.99682 -11.44798,-6.10928 -23.65561,-13.23043 -27.12808,-15.82476 -28.31325,-21.1533 -29.80641,-58.70456 -3.13868,-78.93396 15.14351,-11.48746 41.15743,-15.05725 60,-8.23358 19.47532,7.05282 18.73127,6.99116 23.90087,1.98059 8.31409,-8.05833 8.7658,-6.73404 8.7658,25.69881 0,23.74696 -0.33619,28.82427 -2,30.20511 -3.05138,2.53242 -5.32074,-0.19423 -7.21812,-8.67261 -6.8678,-30.68858 -33.07291,-49.5138 -54.4912,-39.14538 -9.67178,4.68203 -15.00103,16.38552 -12.21171,26.81799 2.11009,7.89207 9.83225,14.81526 26.61802,23.86399 31.02502,16.72471 35.08673,19.23544 43.31439,26.7746 23.87925,21.88103 25.17265,54.75902 3.0224,76.83162 -14.98282,14.9303 -40.25228,21.7416 -65.03378,17.5297 z m 79.55553,-2.2221 c -0.4889,-0.4889 -0.8889,-1.9617 -0.8889,-3.2729 0,-1.7051 1.4241,-2.6419 5,-3.2894 2.75,-0.4979 6.5655,-1.6967 8.4789,-2.6642 7.057,-3.568 7.1878,-4.9728 7.1878,-77.21797 0,-36.66667 -0.4571,-68.29936 -1.0157,-70.29485 -1.2233,-4.36934 -4.5899,-6.34575 -12.8132,-7.52204 -4.9733,-0.7114 -6.1711,-1.39711 -6.1711,-3.53293 0,-3.08564 1.2297,-3.42022 37.0913,-10.09201 20.3638,-3.78853 23.9326,-4.14414 24.9796,-2.48909 0.7048,1.11399 1.2302,36.2566 1.242,83.06425 l 0.02,81.13334 4.3334,4.3324 c 3.137,3.1364 6.0731,4.5932 10.6356,5.2771 6.9742,1.0453 8.7435,2.5904 6.3159,5.5156 -1.3468,1.6227 -8.3352,1.9416 -42.5592,1.9416 -22.5214,0 -41.3479,-0.4 -41.8368,-0.8889 z m -553.79167,-2.579 c -0.87892,-2.2905 1.56394,-4.4785 5.03717,-4.5117 1.17391,-0.011 4.04214,-0.6855 6.37385,-1.4983 8.25264,-2.8769 8.15845,-1.972 8.15845,-78.38158 v -69.32519 l -3.04399,-3.53886 c -2.21901,-2.57975 -4.72699,-3.72855 -9.25379,-4.23879 -6.52624,-0.7356 -9.21509,-3.5631 -6.08455,-6.3983 1.44982,-1.31304 49.62509,-10.07749 57.71566,-10.50012 2.45143,-0.12806 2.72048,0.91095 3.33334,12.87249 0.36666,7.15648 1.08544,13.15649 1.59729,13.33333 0.51184,0.17685 2.79858,-2.49856 5.08163,-5.94535 8.66559,-13.08265 20.20665,-20.24625 32.76841,-20.33953 6.72232,-0.0499 9.014,0.56345 13.3613,3.57614 6.48906,4.49692 9.62832,9.64884 10.71635,17.58684 2.97356,21.69448 -22.46627,35.0754 -35.40725,18.6236 -1.53142,-1.94688 -2.7844,-4.54419 -2.7844,-5.7718 0,-1.2276 -0.85758,-3.39669 -1.90574,-4.82018 -1.84729,-2.5088 -2.04152,-2.51533 -6.33333,-0.21295 -5.43159,2.91383 -9.40737,8.83487 -13.34552,19.87517 -2.86162,8.0223 -3.02456,10.66196 -3.4808,56.38991 -0.26326,26.38551 -0.0799,50.63307 0.40757,53.88347 1.21916,8.1299 6.24709,12.9613 14.77439,14.1969 7.45371,1.08 10.0485,2.6311 8.99486,5.3768 -0.61123,1.5928 -7.65895,1.9025 -43.29593,1.9025 -37.79896,0 -42.65759,-0.239 -43.38497,-2.1345 z" id="path10" />
      <path style="fill:#0f0f0e" d="M 1106.5134,1201.3204 C 1094.1976,1196.7106 1088,1188.2368 1088,1176.0077 c 0,-14.9118 10.4748,-25.7797 26.2093,-27.1929 11.3603,-1.0204 25.0509,3.4003 22.6353,7.3089 -0.602,0.974 -3.3825,0.3118 -8.4696,-2.0172 -7.0113,-3.2099 -8.1098,-3.3547 -14.7998,-1.9515 -12.695,2.6628 -20.2294,10.7848 -20.4555,22.0508 -0.2154,10.7304 3.8434,17.9274 12.6593,22.4471 6.7638,3.4676 17.9858,3.7594 25.2887,0.6574 l 5.0677,-2.1526 -0.401,-7.7064 -0.4011,-7.7064 -7.8962,-0.6667 c -4.6159,-0.3897 -8.1239,-1.359 -8.4444,-2.3333 -0.4083,-1.2411 2.2038,-1.6667 10.2295,-1.6667 H 1140 v 11.1886 11.1886 l -5.6667,2.3098 c -7.5309,3.0697 -21.6628,3.8597 -27.8199,1.5552 z M 304,1174.5227 v -26.1111 h 3.84435 c 3.62813,0 4.37727,1.0938 13.31996,19.4489 5.9142,12.139 10.10705,19.2497 11.15565,18.919 0.92402,-0.2914 5.88004,-8.8934 11.01337,-19.1155 8.33768,-16.6031 9.72759,-18.6311 13.02911,-19.0105 l 3.69578,-0.4247 -0.36244,25.4269 c -0.44416,31.1592 -2.85289,35.0063 -3.39717,5.4257 -0.30409,-16.5262 -0.70812,-20.0032 -2.32444,-20.0032 -1.18115,0 -5.66179,7.3968 -11.3075,18.6667 -5.14313,10.2667 -9.94313,18.6667 -10.66667,18.6667 -0.72354,0 -5.52354,-8.4 -10.66667,-18.6667 -5.64571,-11.2699 -10.12635,-18.6667 -11.3075,-18.6667 -1.61744,0 -2.02014,3.5037 -2.32443,20.2238 -0.26798,14.7243 -0.82128,20.3744 -2.03473,20.7778 C 304.37121,1200.5104 304,1194.8181 304,1174.5227 Z m 112.69793,24.6061 c -0.86533,-1.4001 2.71131,-10.0662 14.57557,-35.3161 5.77238,-12.285 7.78965,-15.4011 9.97023,-15.4011 1.50352,0 3.37022,1.05 4.14822,2.3333 3.4102,5.6252 21.0862,47.5597 20.46844,48.5592 -1.56944,2.5394 -3.52506,0.6901 -6.58362,-6.2259 l -3.24314,-7.3333 h -14.66102 -14.66102 l -3.33044,6.5723 c -3.58389,7.0725 -5.38652,8.9097 -6.68322,6.8116 z m 35.9009,-18.6075 c 1.01727,-1.6459 -8.89967,-24.4322 -10.92746,-25.1082 -1.94891,-0.6496 -12.78991,21.8977 -11.78623,24.5133 0.81216,2.1164 21.43943,2.6567 22.71369,0.5949 z m 69.32738,18.1788 c -0.36122,-0.9413 -0.49238,-12.4913 -0.29148,-25.6667 L 522,1149.0782 h 14 c 11.69193,0 14.76372,0.4487 18.63247,2.7215 9.29999,5.4634 8.76322,17.6489 -1.01515,23.0451 -3.08953,1.7049 -5.61732,3.7288 -5.61732,4.4973 0,0.7686 2.59645,5.0737 5.76989,9.5668 8.12705,11.5067 8.12528,11.5027 5.0161,11.5027 -1.88834,0 -4.79742,-3.119 -9.63793,-10.3334 -3.81326,-5.6833 -7.58155,-10.7896 -8.37397,-11.3473 -0.79241,-0.5577 -4.14076,-0.8577 -7.44076,-0.6667 l -6,0.3474 -0.38725,11 c -0.3058,8.686 -0.80544,11 -2.37518,11 -1.09336,0 -2.28347,-0.7702 -2.64469,-1.7115 z m 30.80106,-28.2279 c 4.35265,-4.3527 4.33043,-10.4575 -0.054,-14.8419 -3.08815,-3.0882 -4.11616,-3.299 -14.33333,-2.9394 l -11.00658,0.3873 -0.40196,8.5263 c -0.22108,4.6894 -0.0899,9.3394 0.29149,10.3333 0.5043,1.3142 3.63091,1.8071 11.46257,1.8071 9.6561,0 11.10736,-0.3382 14.04184,-3.2727 z m 67.57727,4.6039 c 0.22518,-15.7542 0.86636,-25.338 1.69546,-25.3422 0.74492,0 1.50338,4.6515 1.71865,10.5487 0.5798,15.883 1.49161,15.9271 17.42908,0.8415 7.38679,-6.9919 14.05042,-12.7125 14.80806,-12.7125 3.13262,0 0.79146,3.0241 -9.95579,12.8601 -6.23333,5.7048 -11.33333,11.0866 -11.33333,11.9594 0,0.8729 5.43004,7.1956 12.06676,14.0505 7.99922,8.2621 11.38295,12.6061 10.03819,12.887 -1.16229,0.2428 -7.23667,-5.024 -14.22442,-12.3333 -6.70771,-7.0164 -13.25492,-12.7571 -14.54935,-12.7571 -3.02567,0 -3.95704,3.6666 -3.97964,15.6667 -0.0146,7.7567 -0.41906,9.6667 -2.047,9.6667 -1.75769,0 -1.9804,-3.3855 -1.66667,-25.3355 z m 100,-0.3312 0.36213,-25.6667 H 737 c 20.90346,0 22.59219,2.4125 2.33333,3.3334 l -14.66666,0.6666 v 9.3334 9.3333 l 13.66666,0.38 c 7.51667,0.209 13.66667,0.8704 13.66667,1.4698 0,0.5995 -5.78676,1.4967 -12.85946,1.9939 -7.0727,0.4971 -13.3727,1.2211 -14,1.6088 -1.75293,1.0834 -1.36396,17.1241 0.45946,18.9475 1.03733,1.0373 6.42963,1.6 15.33333,1.6 8.26667,0 13.73334,0.5307 13.73334,1.3333 0,0.8207 -6.67627,1.3334 -17.36213,1.3334 h -17.36212 z m 111.67725,4.6667 c -0.01,-11.55 -0.37293,-22.323 -0.80648,-23.94 -0.68815,-2.5666 -1.82905,-2.99 -8.9818,-3.3334 -4.60925,-0.2212 -8.04769,-0.9766 -7.86018,-1.7266 0.20307,-0.8123 7.88889,-1.3334 19.66667,-1.3334 11.77778,0 19.4636,0.5211 19.66667,1.3334 0.18624,0.7449 -3.18273,1.5137 -7.63466,1.7422 -4.38239,0.2248 -8.42321,1.1248 -8.97958,2 -0.55638,0.8751 -1.02078,11.6411 -1.03201,23.9244 -0.0173,18.9539 -0.32306,22.3334 -2.02042,22.3334 -1.69235,0 -2.0028,-3.2303 -2.01821,-21 z m 80.32275,-4.3355 c 0.43289,-30.2861 2.62819,-34.855 3.84292,-7.9979 0.99826,22.0711 0.1988,33.3334 -2.36619,33.3334 -1.5111,0 -1.77431,-4.5157 -1.47673,-25.3355 z M 980,1175.0364 c 0,-22.2628 0.26754,-25.4779 2.18123,-26.2122 3.52047,-1.3509 5.68948,0.8297 21.61497,21.7309 8.3213,10.921 15.9558,20.0475 16.9657,20.281 1.4882,0.344 1.9058,-3.5726 2.2038,-20.6667 0.3084,-17.6954 0.6896,-21.0912 2.3676,-21.0912 1.696,0 2.0551,3.9017 2.3622,25.6667 l 0.3621,25.6667 -3.6955,-0.015 c -3.1924,-0.013 -5.4757,-2.431 -16.7749,-17.766 -15.03671,-20.4073 -19.24735,-25.2531 -21.00122,-24.1692 -0.6938,0.4288 -1.25265,9.9592 -1.25265,21.3622 0,19.6991 -0.11513,20.588 -2.66666,20.588 -2.57326,0 -2.66667,-0.8889 -2.66667,-25.3752 z m -240.66667,-58.8396 c -10.11144,-3.7888 -16.66666,-12.433 -16.66666,-21.9778 0,-6.8691 4.43272,-15.3671 9.61147,-18.4263 4.99787,-2.9523 14.82874,-3.3769 19.51468,-0.8429 1.71938,0.9299 4.61484,4.9423 6.43435,8.9167 3.60614,7.8768 6.1081,9.8784 12.348,9.8784 8.70936,0 19.32312,-14.5602 27.46939,-37.6831 l 3.64626,-10.3498 -2.75413,-6.9836 c -3.62767,-9.1985 -13.44675,-31.2787 -42.23923,-94.98351 -5.63453,-12.46667 -13.90661,-30.9907 -18.3824,-41.16452 -8.73361,-19.8522 -13.96205,-26.96488 -20.83143,-28.33876 -11.6747,-2.33494 -2.10796,-3.15145 35.43768,-3.02457 37.87753,0.12801 40.5906,0.28836 34.81529,2.05775 -7.4182,2.27272 -13.06993,8.27969 -13.06993,13.89143 0,4.89897 1.91391,9.69157 18.60104,46.57867 7.46434,16.5 16.29702,36.15 19.62817,43.66667 4.24239,9.57284 6.73336,13.66667 8.31576,13.66667 2.69298,0 3.9381,-2.77761 20.91935,-46.66667 6.95153,-17.96667 13.86722,-35.66667 15.3682,-39.33334 1.50098,-3.66666 3.05257,-10.0234 3.44799,-14.12607 0.65899,-6.83742 0.39932,-7.81544 -3.11412,-11.72927 -2.48162,-2.76442 -6.18355,-4.91091 -10.49973,-6.08804 -6.25677,-1.70638 -5.04276,-1.8255 19.74536,-1.9374 17.29798,-0.0781 26.12767,0.34088 25.58798,1.21411 -0.45323,0.73334 -1.84936,1.33334 -3.10251,1.33334 -4.70969,0 -12.22982,6.74038 -16.05092,14.38665 -3.93534,7.87484 -26.22167,63.52699 -45.49735,113.61336 -21.69459,56.3717 -30.98576,79.4515 -35.13616,87.2803 -5.45036,10.2807 -16.2632,21.2939 -24.42733,24.8798 -7.52045,3.3032 -23.13933,4.5325 -29.11907,2.2918 z m -100,-67.382 c -30.36124,-4.0269 -52.71624,-24.7599 -61.53461,-57.06991 -3.07526,-11.26757 -3.62065,-15.81225 -3.5202,-29.33333 0.15074,-20.28956 2.68018,-32.0859 10.35332,-48.28407 5.19668,-10.9703 7.69471,-14.4304 17.06144,-23.63236 17.29538,-16.99114 33.12269,-23.41691 57.67818,-23.41691 13.92751,0 23.40177,1.97149 33.02195,6.8715 15.95665,8.12746 25.9894,25.85574 22.23031,39.28188 -4.26618,15.23732 -23.04171,19.90528 -34.01242,8.45615 -3.3802,-3.5276 -3.92863,-5.10584 -3.83282,-11.02975 0.0615,-3.80221 0.58404,-10.25263 1.1612,-14.33427 1.69882,-12.01392 -4.01331,-19.60728 -16.92661,-22.50121 -17.85656,-4.00174 -35.09719,12.07498 -43.52757,40.58904 -3.97346,13.43945 -5.69589,33.71557 -4.08802,48.12339 3.51052,31.45697 15.5261,52.71865 35.24106,62.35935 7.22643,3.5337 8.70971,3.7764 20.05156,3.2803 10.44597,-0.4569 13.52101,-1.1624 20.90165,-4.7959 11.50188,-5.6624 19.84223,-13.2279 24.54844,-22.268 2.45272,-4.71132 4.58891,-7.26656 5.85981,-7.00927 3.12884,0.63345 1.73582,7.15247 -3.76927,17.63947 -14.04005,26.7456 -44.40205,41.3838 -76.8974,37.0739 z M 1130,1048.8488 c -11.222,-2.4694 -22.6259,-10.8441 -28.0135,-20.5723 -3.6809,-6.6464 -3.9865,-8.2205 -3.9862,-20.5316 2e-4,-11.89708 0.4015,-14.15059 3.7257,-20.92021 4.6192,-9.40684 14.806,-18.92709 27.2483,-25.46536 5.1255,-2.69336 21.2531,-8.87642 35.8391,-13.74012 31.0531,-10.3547 36.1343,-12.70615 38.0218,-17.59549 0.7934,-2.05507 1.1756,-9.93452 0.8866,-18.27883 -0.5648,-16.31046 -2.8595,-22.79355 -10.2773,-29.03523 -14.0118,-11.79009 -39.0495,-9.28721 -46.2425,4.62261 -1.7648,3.41267 -2.001,6.01277 -1.1813,13.00568 0.5635,4.80715 0.9743,10.80033 0.913,13.31817 -0.3163,12.98384 -17.6954,21.50909 -30.5151,14.96899 -6.541,-3.33695 -9.7633,-9.44018 -9.7227,-18.41506 0.1156,-25.50347 35.8098,-45.33765 76.4589,-42.48576 29.2215,2.05016 47.9716,12.97538 55.7619,32.49114 2.9179,7.30985 3.0262,9.26184 3.7111,66.92478 0.6446,54.26679 0.913,59.71169 3.1086,63.05949 5.1149,7.7993 14.0634,7.3389 22.2879,-1.1466 5.3674,-5.5377 6.6424,-5.7721 6.6424,-1.2212 0,5.0991 -12.2954,16.8543 -20.5822,19.6779 -8.3621,2.8493 -24.4875,2.9382 -31.1091,0.1715 -8.6776,-3.6257 -14.6975,-11.3124 -16.9186,-21.6031 -0.5145,-2.3833 -1.4927,-4.3333 -2.1739,-4.3333 -0.6811,0 -4.9835,3.7605 -9.5607,8.3566 -14.1379,14.1963 -28.3036,19.762 -49.6023,19.4887 -6.6293,-0.085 -13.2532,-0.4187 -14.7199,-0.7414 z m 52.1315,-19.8905 c 7.9276,-3.7504 15.6346,-11.614 19.3052,-19.6974 2.2074,-4.8613 2.5082,-9.0422 2.534,-35.22452 0.025,-25.25693 -0.2718,-29.82405 -1.98,-30.47955 -2.0555,-0.78879 -28.9699,10.26032 -40.3383,16.56004 -19.3641,10.73051 -30.3998,33.20161 -25.159,51.22943 5.6811,19.5423 25.4398,27.1673 45.6381,17.612 z m -255.46483,17.4182 c -4.03334,-0.9972 -11.07141,-3.3472 -15.64018,-5.2223 -10.4671,-4.2959 -15.08082,-4.3134 -20.11666,-0.076 -2.1788,1.8334 -4.32483,3.3334 -4.76897,3.3334 -0.44414,0 -0.80753,-12.95 -0.80753,-28.7778 0,-31.63903 0.87868,-34.42377 6.04039,-19.14345 4.63449,13.71955 9.43768,21.98655 17.65167,30.38105 4.21866,4.3113 10.96376,9.5632 14.98912,11.6708 6.3884,3.3448 8.75961,3.8323 18.65216,3.8347 9.04918,0 12.40823,-0.5741 16.66666,-2.8592 16.27867,-8.7352 21.94608,-27.0452 13.29248,-42.94477 -6.11012,-11.22629 -15.41528,-17.85759 -49.95914,-35.60325 -11.88446,-6.10521 -24.75571,-18.29942 -29.29258,-27.75175 -3.67264,-7.65175 -5.08585,-22.70474 -2.89217,-30.80637 2.53494,-9.36199 9.64402,-19.53887 17.45548,-24.98809 17.38241,-12.12584 45.66088,-14.1525 64.69311,-4.63642 8.05373,4.02686 14.41653,3.70307 19.30721,-0.98249 L 996,867.91264 v 27.58279 c 0,15.5153 -0.52652,27.58279 -1.20346,27.58279 -0.66191,0 -2.52254,-4.34274 -4.13473,-9.65053 -3.95389,-13.01732 -7.0959,-18.82945 -14.45219,-26.73386 -7.64047,-8.20975 -19.67953,-14.29208 -28.20962,-14.25194 -6.1986,0.0292 -16.07524,3.75243 -20.45124,7.70965 -4.19931,3.79744 -7.54876,11.83749 -7.54876,18.1201 0,14.8684 5.78545,20.4981 39.56906,38.50381 29.60805,15.78025 37.8523,22.89318 45.42124,39.18825 3.0741,6.61812 3.619,9.57486 3.6453,19.78119 0.027,10.26891 -0.4844,13.09981 -3.5423,19.62411 -7.17078,15.2992 -21.91239,26.7533 -39.88406,30.9895 -10.42584,2.4576 -28.64007,2.466 -38.54257,0.018 z m -457.33334,-1.9649 c -10.22391,-0.6014 -10.81125,-0.7743 -6,-1.7653 7.32373,-1.5087 11.21681,-4.2969 13.4447,-9.629 2.75477,-6.593 2.79379,-137.19172 0.043,-143.77538 -1.87037,-4.47644 -9.52007,-8.83036 -15.51464,-8.83036 -1.45182,0 -2.63968,-0.52851 -2.63968,-1.17446 0,-0.64596 6.75,-2.20844 15,-3.47219 8.25,-1.26375 20.96819,-3.42941 28.26265,-4.81258 10.40392,-1.97278 13.48904,-2.1584 14.31292,-0.86114 0.57764,0.90953 1.05945,7.8037 1.07068,15.32037 0.0239,16.0092 1.34535,17.23971 7.24111,6.74285 4.80598,-8.55659 13.06725,-16.95121 20.11264,-20.43726 7.42041,-3.67161 20.51387,-3.60248 25.51947,0.13474 7.32304,5.46743 9.14719,9.34017 9.14719,19.41979 0,9.24644 -0.051,9.37884 -5.61503,14.56889 -4.5818,4.27386 -6.58997,5.23765 -10.9132,5.23765 -2.91399,0 -6.83695,-0.58504 -8.71769,-1.3001 -3.92598,-1.49265 -8.74176,-8.64073 -8.74909,-12.98632 -0.008,-4.79175 -4.56941,-6.31195 -10.38282,-3.46039 -5.62547,2.75937 -9.54013,8.07159 -13.90598,18.87051 -2.97672,7.36289 -3.05889,8.83214 -3.4422,61.54297 -0.21598,29.70001 -0.0781,55.25601 0.30632,56.79121 1.2972,5.1798 7.27786,9.657 15.05711,11.2719 4.95698,1.0291 6.81856,1.9097 5.61254,2.6551 -1.86923,1.1552 -49.33525,1.1199 -69.24996,-0.052 z M 1012,1044.582 c 0,-0.6396 2.3098,-1.5323 5.1328,-1.9837 6.8251,-1.0914 11.8159,-5.2309 13.5735,-11.2583 0.9696,-3.3249 1.3054,-27.3663 1.0321,-73.89222 -0.4024,-68.50675 -0.424,-68.98276 -3.2691,-71.82696 -1.5752,-1.57475 -6.0752,-3.61792 -10,-4.54037 -3.9248,-0.92246 -6.236,-1.99154 -5.136,-2.37573 2.8943,-1.01089 52.6773,-10.29317 55.2046,-10.29317 1.9261,0 2.1292,7.71335 2.1338,81.00001 0,76.89764 0.1318,81.20804 2.5092,85.10674 2.7642,4.5329 9.9874,8.5599 15.3539,8.5599 1.9059,0 3.4652,0.6 3.4652,1.3334 0,0.8592 -14.2222,1.3333 -40,1.3333 -22,0 -40,-0.5233 -40,-1.1629 z" id="path9" />
    </g>
  </g>
</svg>